<?xml version="1.0" standalone="no"?>
<svg xmlns:xlink="http://www.w3.org/1999/xlink" width="512" height="512" viewBox="0 0 14 14" fill="none" xmlns="http://www.w3.org/2000/svg">
<path d="M14 2.75C13.9688 1.25 12.75 0.03125 11.25 0H2.75C1.21875 0.03125 0 1.25 0 2.75V11.25C0 12.7812 1.21875 14 2.75 14H11.25C12.75 14 13.9688 12.7812 14 11.25V2.75ZM12.5 2.75V11.25C12.4688 11.9688 11.9375 12.5 11.25 12.5H2.75C2.03125 12.5 1.5 11.9688 1.5 11.25V2.75C1.5 2.0625 2.03125 1.53125 2.75 1.5H11.25C11.9375 1.53125 12.4688 2.0625 12.5 2.75ZM12 4.5C12 3.125 10.875 2 9.5 2C8.09375 2 7 3.125 7 4.5C7 3.125 5.875 2 4.5 2C3.09375 2 2 3.125 2 4.5C2 5.90625 3.09375 7 4.5 7C4.71875 7 4.90625 6.96875 5.125 6.90625L3.59375 5.40625C3.40625 5.1875 3.21875 4.78125 3.21875 4.5C3.21875 3.8125 3.78125 3.25 4.46875 3.25C4.75 3.25 5.15625 3.40625 5.375 3.625L7 5.25L8.59375 3.625C8.8125 3.40625 9.21875 3.25 9.5 3.25C10.1875 3.25 10.75 3.8125 10.75 4.5C10.75 4.78125 10.5938 5.1875 10.375 5.40625L8.84375 6.90625C9.0625 6.96875 9.25 7 9.5 7C10.875 7 11.9688 5.90625 12 4.5ZM6.5 9.5C6.5 9.78125 6.71875 10 7 10C7.25 10 7.5 9.78125 7.5 9.5V7.21875L9.84375 4.875C9.90625 4.78125 9.96875 4.65625 9.96875 4.53125C9.96875 4.25 9.75 4.03125 9.46875 4.03125C9.34375 4.03125 9.21875 4.09375 9.125 4.15625L7 6.3125L4.84375 4.15625C4.75 4.09375 4.625 4.03125 4.5 4.03125C4.21875 4.03125 4 4.25 4 4.53125C4 4.65625 4.0625 4.78125 4.125 4.875L6.5 7.21875V9.5ZM9.5 9.53125C9.5 8.78125 8.96875 7.84375 8.34375 7.40625L8.25 7.53125V9.5C8.25 10.2188 7.6875 10.75 7 10.75C6.28125 10.75 5.75 10.2188 5.75 9.5V7.53125L5.625 7.40625C5 7.84375 4.5 8.78125 4.5 9.53125C4.5 10.9062 5.59375 12.0312 7 12.0312C8.375 12.0312 9.5 10.9062 9.5 9.53125Z" fill="#323232"/>
</svg>